<svg width="32" height="32" viewBox="0 0 32 32" fill="none" xmlns="http://www.w3.org/2000/svg">
<path id="Vector" d="M24.0096 0C25.1055 0 26.1378 0.210275 27.1063 0.630824C28.0749 1.05137 28.9223 1.62485 29.6487 2.35125C30.3751 3.07766 30.9486 3.92513 31.3692 4.89367C31.7897 5.86221 32 6.89446 32 7.99044V23.9713C32 25.0673 31.7897 26.1059 31.3692 27.0872C30.9486 28.0685 30.3751 28.9223 29.6487 29.6487C28.9223 30.3751 28.0749 30.9486 27.1063 31.3692C26.1378 31.7897 25.1055 32 24.0096 32H7.99044C6.89446 32 5.86221 31.7897 4.89367 31.3692C3.92513 30.9486 3.07766 30.3751 2.35125 29.6487C1.62485 28.9223 1.05137 28.0685 0.630824 27.0872C0.210275 26.1059 0 25.0673 0 23.9713V7.99044C0 6.89446 0.210275 5.86221 0.630824 4.89367C1.05137 3.92513 1.62485 3.07766 2.35125 2.35125C3.07766 1.62485 3.92513 1.05137 4.89367 0.630824C5.86221 0.210275 6.89446 0 7.99044 0H24.0096ZM11.0108 12.0048H6.99642V25.0036H11.0108V12.0048ZM9.0227 10.9725C9.55794 10.9725 10.0231 10.7814 10.4182 10.399C10.8132 10.0167 11.0108 9.5452 11.0108 8.98447C11.0108 8.42374 10.8132 7.95221 10.4182 7.56989C10.0231 7.18757 9.55794 6.99642 9.0227 6.99642C8.46197 6.99642 7.98407 7.18757 7.58901 7.56989C7.19395 7.95221 6.99642 8.42374 6.99642 8.98447C6.99642 9.5452 7.19395 10.0167 7.58901 10.399C7.98407 10.7814 8.46197 10.9725 9.0227 10.9725ZM25.0036 17.4719C25.0036 16.5544 24.7487 15.6559 24.2389 14.7766C23.7292 13.8973 23.0665 13.2282 22.2509 12.7694C21.5117 12.3616 20.6515 12.145 19.6702 12.1195C18.689 12.094 17.8033 12.2597 17.0131 12.6165V12.0048H12.9988V25.0036H17.0131V17.0514L18.6571 16.2485C18.861 16.1466 19.1414 16.0956 19.4982 16.0956C19.855 16.0956 20.1227 16.1593 20.3011 16.2867C20.454 16.3632 20.6069 16.5289 20.7599 16.7838C20.9128 17.0386 20.9892 17.268 20.9892 17.4719V25.0036H25.0036V17.4719Z" fill="#FDFFFA"/>
</svg>
